<?xml version="1.0"?>
<svg xmlns="http://www.w3.org/2000/svg" viewBox="0 0 444 169" width="444" height="169">

<rect x="118.52" y="63.45" width="1.33" height="1.33" fill="#F5F5F0" opacity="0.564" rx="0.4"></rect><rect x="199.88" y="136.18" width="2.35" height="2.35" fill="#B8FF00" opacity="0.241" rx="0.4"></rect><rect x="125.39" y="68.65" width="3.91" height="3.91" fill="#F5F5F0" opacity="0.638" rx="0.4"></rect><rect x="73.29" y="57.65" width="3.20" height="3.20" fill="#F5F5F0" opacity="0.746" rx="0.4"></rect><rect x="58.39" y="52.11" width="2.75" height="2.75" fill="#F5F5F0" opacity="0.620" rx="0.4"></rect><rect x="167.43" y="104.85" width="2.54" height="2.54" fill="#B8FF00" opacity="0.456" rx="0.4"></rect><rect x="134.24" y="76.18" width="3.12" height="3.12" fill="#F5F5F0" opacity="0.853" rx="0.4"></rect><rect x="139.53" y="66.04" width="3.06" height="3.06" fill="#F5F5F0" opacity="0.714" rx="0.4"></rect><rect x="133.81" y="114.45" width="3.02" height="3.02" fill="#B8FF00" opacity="0.483" rx="0.4"></rect><rect x="135.55" y="40.10" width="2.82" height="2.82" fill="#F5F5F0" opacity="0.719" rx="0.4"></rect><rect x="132.99" y="139.79" width="1.57" height="1.57" fill="#F5F5F0" opacity="0.892" rx="0.4"></rect><rect x="187.30" y="6.21" width="1.30" height="1.30" fill="#F5F5F0" opacity="0.465" rx="0.4"></rect><rect x="154.95" y="107.03" width="3.65" height="3.65" fill="#F5F5F0" opacity="0.577" rx="0.4"></rect><rect x="80.24" y="41.73" width="2.71" height="2.71" fill="#F5F5F0" opacity="0.621" rx="0.4"></rect><rect x="91.04" y="34.76" width="3.72" height="3.72" fill="#F5F5F0" opacity="0.583" rx="0.4"></rect><rect x="48.41" y="95.82" width="3.33" height="3.33" fill="#B8FF00" opacity="0.381" rx="0.4"></rect><rect x="74.15" y="79.55" width="1.42" height="1.42" fill="#F5F5F0" opacity="0.969" rx="0.4"></rect><rect x="121.26" y="158.29" width="3.56" height="3.56" fill="#F5F5F0" opacity="0.447" rx="0.4"></rect><rect x="118.90" y="10.93" width="1.55" height="1.55" fill="#F5F5F0" opacity="0.545" rx="0.4"></rect><rect x="131.20" y="103.64" width="2.68" height="2.68" fill="#F5F5F0" opacity="0.562" rx="0.4"></rect><rect x="71.40" y="110.08" width="3.79" height="3.79" fill="#F5F5F0" opacity="0.569" rx="0.4"></rect><rect x="138.12" y="28.61" width="2.18" height="2.18" fill="#F5F5F0" opacity="0.754" rx="0.4"></rect><rect x="163.44" y="96.71" width="3.69" height="3.69" fill="#F5F5F0" opacity="0.520" rx="0.4"></rect><rect x="191.00" y="38.59" width="1.86" height="1.86" fill="#F5F5F0" opacity="0.527" rx="0.4"></rect><rect x="118.52" y="29.17" width="1.92" height="1.92" fill="#F5F5F0" opacity="0.715" rx="0.4"></rect><rect x="132.71" y="85.78" width="1.39" height="1.39" fill="#F5F5F0" opacity="0.756" rx="0.4"></rect><rect x="172.49" y="80.19" width="3.35" height="3.35" fill="#F5F5F0" opacity="0.567" rx="0.4"></rect><rect x="112.77" y="14.00" width="1.70" height="1.70" fill="#F5F5F0" opacity="0.445" rx="0.4"></rect><rect x="109.30" y="120.34" width="4.20" height="4.20" fill="#F5F5F0" opacity="0.821" rx="0.4"></rect><rect x="190.87" y="158.20" width="3.25" height="3.25" fill="#F5F5F0" opacity="0.459" rx="0.4"></rect><rect x="78.39" y="116.62" width="2.91" height="2.91" fill="#F5F5F0" opacity="0.821" rx="0.4"></rect><rect x="130.38" y="95.21" width="1.45" height="1.45" fill="#F5F5F0" opacity="0.582" rx="0.4"></rect><rect x="129.32" y="79.75" width="1.34" height="1.34" fill="#F5F5F0" opacity="0.892" rx="0.4"></rect><rect x="97.20" y="103.17" width="3.23" height="3.23" fill="#F5F5F0" opacity="0.906" rx="0.4"></rect><rect x="40.21" y="74.34" width="3.23" height="3.23" fill="#F5F5F0" opacity="0.481" rx="0.4"></rect><rect x="147.96" y="92.40" width="1.75" height="1.75" fill="#F5F5F0" opacity="0.620" rx="0.4"></rect><rect x="39.56" y="153.91" width="1.77" height="1.77" fill="#F5F5F0" opacity="0.410" rx="0.4"></rect><rect x="175.10" y="45.66" width="2.65" height="2.65" fill="#F5F5F0" opacity="0.651" rx="0.4"></rect><rect x="96.18" y="24.66" width="2.16" height="2.16" fill="#F5F5F0" opacity="0.492" rx="0.4"></rect><rect x="133.54" y="122.44" width="1.74" height="1.74" fill="#F5F5F0" opacity="0.971" rx="0.4"></rect><rect x="84.96" y="76.53" width="1.66" height="1.66" fill="#F5F5F0" opacity="0.575" rx="0.4"></rect><rect x="142.21" y="120.10" width="2.31" height="2.31" fill="#F5F5F0" opacity="0.935" rx="0.4"></rect><rect x="181.95" y="101.26" width="3.07" height="3.07" fill="#F5F5F0" opacity="0.631" rx="0.4"></rect><rect x="105.95" y="47.86" width="2.59" height="2.59" fill="#F5F5F0" opacity="0.674" rx="0.4"></rect><rect x="69.05" y="103.35" width="2.91" height="2.91" fill="#F5F5F0" opacity="0.829" rx="0.4"></rect><rect x="94.18" y="91.19" width="2.79" height="2.79" fill="#F5F5F0" opacity="0.768" rx="0.4"></rect><rect x="99.42" y="100.61" width="2.00" height="2.00" fill="#F5F5F0" opacity="0.935" rx="0.4"></rect><rect x="150.22" y="27.62" width="3.19" height="3.19" fill="#F5F5F0" opacity="0.566" rx="0.4"></rect><rect x="186.09" y="87.51" width="1.96" height="1.96" fill="#F5F5F0" opacity="0.493" rx="0.4"></rect><rect x="71.81" y="140.48" width="3.78" height="3.78" fill="#F5F5F0" opacity="0.573" rx="0.4"></rect><rect x="90.32" y="84.36" width="2.52" height="2.52" fill="#F5F5F0" opacity="0.706" rx="0.4"></rect><rect x="90.16" y="68.72" width="2.88" height="2.88" fill="#F5F5F0" opacity="0.714" rx="0.4"></rect><rect x="123.18" y="13.85" width="2.53" height="2.53" fill="#F5F5F0" opacity="0.470" rx="0.4"></rect><rect x="55.23" y="121.12" width="2.62" height="2.62" fill="#F5F5F0" opacity="0.719" rx="0.4"></rect><rect x="35.62" y="68.08" width="1.95" height="1.95" fill="#F5F5F0" opacity="0.647" rx="0.4"></rect><rect x="128.54" y="42.10" width="4.04" height="4.04" fill="#F5F5F0" opacity="0.846" rx="0.4"></rect><rect x="170.86" y="77.39" width="2.09" height="2.09" fill="#F5F5F0" opacity="0.657" rx="0.4"></rect><rect x="102.25" y="25.81" width="1.96" height="1.96" fill="#F5F5F0" opacity="0.771" rx="0.4"></rect><rect x="87.53" y="82.98" width="1.88" height="1.88" fill="#F5F5F0" opacity="0.942" rx="0.4"></rect><rect x="92.64" y="109.21" width="3.44" height="3.44" fill="#F5F5F0" opacity="0.876" rx="0.4"></rect><rect x="182.44" y="77.65" width="3.87" height="3.87" fill="#F5F5F0" opacity="0.705" rx="0.4"></rect><rect x="125.99" y="8.38" width="1.67" height="1.67" fill="#F5F5F0" opacity="0.545" rx="0.4"></rect><rect x="91.07" y="7.83" width="3.62" height="3.62" fill="#F5F5F0" opacity="0.410" rx="0.4"></rect><rect x="95.69" y="44.05" width="3.88" height="3.88" fill="#B8FF00" opacity="0.570" rx="0.4"></rect><rect x="181.25" y="21.42" width="1.97" height="1.97" fill="#F5F5F0" opacity="0.357" rx="0.4"></rect><rect x="154.01" y="76.72" width="2.40" height="2.40" fill="#F5F5F0" opacity="0.839" rx="0.4"></rect><rect x="132.64" y="40.55" width="3.38" height="3.38" fill="#F5F5F0" opacity="0.739" rx="0.4"></rect><rect x="188.98" y="68.58" width="1.59" height="1.59" fill="#F5F5F0" opacity="0.473" rx="0.4"></rect><rect x="71.43" y="64.57" width="3.08" height="3.08" fill="#F5F5F0" opacity="0.584" rx="0.4"></rect><rect x="125.38" y="56.04" width="2.40" height="2.40" fill="#F5F5F0" opacity="0.797" rx="0.4"></rect><rect x="174.68" y="103.35" width="4.00" height="4.00" fill="#F5F5F0" opacity="0.653" rx="0.4"></rect><rect x="200.74" y="85.91" width="2.61" height="2.61" fill="#F5F5F0" opacity="0.419" rx="0.4"></rect><rect x="137.94" y="9.75" width="3.58" height="3.58" fill="#F5F5F0" opacity="0.451" rx="0.4"></rect><rect x="33.41" y="15.40" width="3.24" height="3.24" fill="#F5F5F0" opacity="0.319" rx="0.4"></rect><rect x="175.34" y="34.75" width="1.99" height="1.99" fill="#F5F5F0" opacity="0.382" rx="0.4"></rect><rect x="174.60" y="104.30" width="1.41" height="1.41" fill="#F5F5F0" opacity="0.732" rx="0.4"></rect><rect x="124.56" y="124.39" width="2.16" height="2.16" fill="#F5F5F0" opacity="0.771" rx="0.4"></rect><rect x="154.14" y="63.73" width="1.61" height="1.61" fill="#F5F5F0" opacity="0.768" rx="0.4"></rect><rect x="150.77" y="66.24" width="2.57" height="2.57" fill="#F5F5F0" opacity="0.839" rx="0.4"></rect><rect x="30.01" y="140.35" width="3.71" height="3.71" fill="#F5F5F0" opacity="0.371" rx="0.4"></rect><rect x="97.73" y="77.23" width="2.66" height="2.66" fill="#F5F5F0" opacity="0.986" rx="0.4"></rect><rect x="94.52" y="71.76" width="2.11" height="2.11" fill="#F5F5F0" opacity="0.586" rx="0.4"></rect><rect x="23.41" y="66.38" width="4.16" height="4.16" fill="#F5F5F0" opacity="0.436" rx="0.4"></rect><rect x="65.86" y="114.94" width="2.58" height="2.58" fill="#F5F5F0" opacity="0.570" rx="0.4"></rect><rect x="107.80" y="123.46" width="3.75" height="3.75" fill="#F5F5F0" opacity="0.750" rx="0.4"></rect><rect x="110.06" y="35.60" width="3.35" height="3.35" fill="#F5F5F0" opacity="0.516" rx="0.4"></rect><rect x="80.02" y="90.06" width="2.08" height="2.08" fill="#F5F5F0" opacity="0.777" rx="0.4"></rect><rect x="79.64" y="115.67" width="2.11" height="2.11" fill="#F5F5F0" opacity="0.934" rx="0.4"></rect><rect x="136.92" y="7.77" width="3.72" height="3.72" fill="#F5F5F0" opacity="0.464" rx="0.4"></rect><rect x="148.11" y="130.47" width="3.97" height="3.97" fill="#F5F5F0" opacity="0.783" rx="0.4"></rect><rect x="103.88" y="104.99" width="2.19" height="2.19" fill="#F5F5F0" opacity="0.591" rx="0.4"></rect><rect x="182.56" y="84.27" width="1.63" height="1.63" fill="#F5F5F0" opacity="0.654" rx="0.4"></rect><rect x="77.18" y="39.62" width="1.47" height="1.47" fill="#F5F5F0" opacity="0.620" rx="0.4"></rect><rect x="128.10" y="164.39" width="2.34" height="2.34" fill="#F5F5F0" opacity="0.503" rx="0.4"></rect><rect x="46.66" y="113.42" width="4.05" height="4.05" fill="#F5F5F0" opacity="0.413" rx="0.4"></rect><rect x="160.94" y="20.30" width="3.36" height="3.36" fill="#F5F5F0" opacity="0.377" rx="0.4"></rect><rect x="72.79" y="144.85" width="1.43" height="1.43" fill="#F5F5F0" opacity="0.438" rx="0.4"></rect><rect x="130.38" y="82.24" width="3.02" height="3.02" fill="#F5F5F0" opacity="0.835" rx="0.4"></rect><rect x="106.39" y="70.53" width="1.65" height="1.65" fill="#F5F5F0" opacity="0.902" rx="0.4"></rect><rect x="80.64" y="96.92" width="2.90" height="2.90" fill="#F5F5F0" opacity="0.617" rx="0.4"></rect><rect x="129.12" y="65.15" width="2.72" height="2.72" fill="#F5F5F0" opacity="0.817" rx="0.4"></rect><rect x="48.49" y="126.13" width="3.17" height="3.17" fill="#F5F5F0" opacity="0.446" rx="0.4"></rect><rect x="141.37" y="84.44" width="2.53" height="2.53" fill="#F5F5F0" opacity="0.718" rx="0.4"></rect><rect x="93.57" y="72.66" width="2.02" height="2.02" fill="#F5F5F0" opacity="0.822" rx="0.4"></rect><rect x="175.99" y="39.31" width="2.05" height="2.05" fill="#F5F5F0" opacity="0.597" rx="0.4"></rect><rect x="65.14" y="55.40" width="3.67" height="3.67" fill="#F5F5F0" opacity="0.826" rx="0.4"></rect><rect x="142.32" y="84.29" width="1.35" height="1.35" fill="#F5F5F0" opacity="0.712" rx="0.4"></rect><rect x="91.56" y="126.73" width="3.05" height="3.05" fill="#F5F5F0" opacity="0.560" rx="0.4"></rect><rect x="63.96" y="51.10" width="2.43" height="2.43" fill="#F5F5F0" opacity="0.525" rx="0.4"></rect><rect x="85.02" y="8.14" width="2.47" height="2.47" fill="#F5F5F0" opacity="0.538" rx="0.4"></rect><rect x="58.11" y="145.53" width="3.27" height="3.27" fill="#B8FF00" opacity="0.464" rx="0.4"></rect><rect x="150.47" y="93.02" width="3.31" height="3.31" fill="#F5F5F0" opacity="0.656" rx="0.4"></rect><rect x="147.67" y="120.08" width="2.42" height="2.42" fill="#F5F5F0" opacity="0.562" rx="0.4"></rect><rect x="29.65" y="98.81" width="1.62" height="1.62" fill="#F5F5F0" opacity="0.460" rx="0.4"></rect><rect x="76.19" y="157.26" width="3.30" height="3.30" fill="#F5F5F0" opacity="0.631" rx="0.4"></rect><rect x="78.35" y="62.40" width="1.71" height="1.71" fill="#F5F5F0" opacity="0.888" rx="0.4"></rect><rect x="129.89" y="160.09" width="2.54" height="2.54" fill="#F5F5F0" opacity="0.637" rx="0.4"></rect><rect x="66.95" y="97.78" width="4.06" height="4.06" fill="#F5F5F0" opacity="0.808" rx="0.4"></rect><rect x="57.11" y="149.96" width="3.18" height="3.18" fill="#F5F5F0" opacity="0.565" rx="0.4"></rect><rect x="126.32" y="29.14" width="1.79" height="1.79" fill="#F5F5F0" opacity="0.691" rx="0.4"></rect><rect x="189.89" y="85.71" width="2.75" height="2.75" fill="#F5F5F0" opacity="0.568" rx="0.4"></rect><rect x="100.01" y="102.28" width="3.72" height="3.72" fill="#F5F5F0" opacity="0.706" rx="0.4"></rect><rect x="136.85" y="153.05" width="3.60" height="3.60" fill="#F5F5F0" opacity="0.725" rx="0.4"></rect><rect x="86.83" y="58.34" width="3.11" height="3.11" fill="#F5F5F0" opacity="0.902" rx="0.4"></rect><rect x="156.88" y="97.31" width="1.74" height="1.74" fill="#F5F5F0" opacity="0.711" rx="0.4"></rect><rect x="112.04" y="61.51" width="2.46" height="2.46" fill="#F5F5F0" opacity="0.868" rx="0.4"></rect><rect x="134.57" y="148.46" width="4.13" height="4.13" fill="#F5F5F0" opacity="0.577" rx="0.4"></rect><rect x="147.79" y="65.24" width="4.07" height="4.07" fill="#F5F5F0" opacity="0.835" rx="0.4"></rect><rect x="157.87" y="83.70" width="1.65" height="1.65" fill="#F5F5F0" opacity="0.579" rx="0.4"></rect><rect x="187.37" y="101.84" width="2.76" height="2.76" fill="#F5F5F0" opacity="0.640" rx="0.4"></rect><rect x="125.89" y="34.34" width="3.60" height="3.60" fill="#F5F5F0" opacity="0.631" rx="0.4"></rect><rect x="94.54" y="85.91" width="1.73" height="1.73" fill="#F5F5F0" opacity="0.918" rx="0.4"></rect><rect x="123.08" y="16.18" width="3.59" height="3.59" fill="#F5F5F0" opacity="0.456" rx="0.4"></rect><rect x="172.07" y="152.31" width="3.65" height="3.65" fill="#F5F5F0" opacity="0.561" rx="0.4"></rect><rect x="170.55" y="61.15" width="3.41" height="3.41" fill="#F5F5F0" opacity="0.808" rx="0.4"></rect><rect x="114.50" y="64.17" width="2.91" height="2.91" fill="#F5F5F0" opacity="0.666" rx="0.4"></rect><rect x="118.13" y="52.82" width="3.56" height="3.56" fill="#F5F5F0" opacity="0.672" rx="0.4"></rect><rect x="112.16" y="76.90" width="3.53" height="3.53" fill="#F5F5F0" opacity="0.797" rx="0.4"></rect><rect x="95.69" y="155.57" width="3.30" height="3.30" fill="#F5F5F0" opacity="0.665" rx="0.4"></rect><rect x="119.86" y="66.27" width="1.65" height="1.65" fill="#F5F5F0" opacity="0.727" rx="0.4"></rect><rect x="50.44" y="115.38" width="1.70" height="1.70" fill="#F5F5F0" opacity="0.543" rx="0.4"></rect><rect x="64.76" y="96.10" width="3.63" height="3.63" fill="#F5F5F0" opacity="0.867" rx="0.4"></rect><rect x="110.37" y="87.83" width="2.20" height="2.20" fill="#F5F5F0" opacity="0.862" rx="0.4"></rect><rect x="107.37" y="61.36" width="1.41" height="1.41" fill="#F5F5F0" opacity="0.718" rx="0.4"></rect><rect x="54.84" y="76.06" width="3.36" height="3.36" fill="#F5F5F0" opacity="0.693" rx="0.4"></rect><rect x="125.52" y="57.86" width="2.23" height="2.23" fill="#F5F5F0" opacity="0.788" rx="0.4"></rect><rect x="23.61" y="103.15" width="2.22" height="2.22" fill="#F5F5F0" opacity="0.385" rx="0.4"></rect><rect x="126.30" y="115.64" width="1.56" height="1.56" fill="#F5F5F0" opacity="0.912" rx="0.4"></rect><rect x="200.28" y="63.00" width="1.62" height="1.62" fill="#F5F5F0" opacity="0.571" rx="0.4"></rect><rect x="110.65" y="102.72" width="2.67" height="2.67" fill="#F5F5F0" opacity="0.556" rx="0.4"></rect><rect x="151.51" y="146.53" width="1.91" height="1.91" fill="#F5F5F0" opacity="0.643" rx="0.4"></rect><rect x="70.05" y="126.74" width="1.88" height="1.88" fill="#F5F5F0" opacity="0.561" rx="0.4"></rect><rect x="135.44" y="72.85" width="1.35" height="1.35" fill="#F5F5F0" opacity="0.793" rx="0.4"></rect><rect x="178.72" y="26.20" width="3.84" height="3.84" fill="#F5F5F0" opacity="0.536" rx="0.4"></rect><rect x="117.69" y="105.50" width="1.89" height="1.89" fill="#F5F5F0" opacity="0.669" rx="0.4"></rect><rect x="117.66" y="166.55" width="2.59" height="2.59" fill="#F5F5F0" opacity="0.658" rx="0.4"></rect><rect x="157.88" y="95.48" width="1.86" height="1.86" fill="#F5F5F0" opacity="0.797" rx="0.4"></rect><rect x="79.76" y="96.12" width="1.59" height="1.59" fill="#F5F5F0" opacity="0.908" rx="0.4"></rect><rect x="95.75" y="22.50" width="2.25" height="2.25" fill="#F5F5F0" opacity="0.569" rx="0.4"></rect><rect x="121.92" y="53.29" width="3.54" height="3.54" fill="#F5F5F0" opacity="0.979" rx="0.4"></rect><rect x="158.53" y="1.95" width="2.25" height="2.25" fill="#F5F5F0" opacity="0.533" rx="0.4"></rect><rect x="108.69" y="95.20" width="4.13" height="4.13" fill="#F5F5F0" opacity="0.988" rx="0.4"></rect><rect x="132.96" y="69.72" width="1.67" height="1.67" fill="#F5F5F0" opacity="0.831" rx="0.4"></rect><rect x="82.33" y="119.06" width="3.13" height="3.13" fill="#F5F5F0" opacity="0.944" rx="0.4"></rect><rect x="84.39" y="101.94" width="3.41" height="3.41" fill="#F5F5F0" opacity="0.878" rx="0.4"></rect><rect x="21.33" y="52.20" width="4.19" height="4.19" fill="#F5F5F0" opacity="0.357" rx="0.4"></rect><rect x="121.27" y="46.20" width="3.65" height="3.65" fill="#F5F5F0" opacity="0.547" rx="0.4"></rect><rect x="73.36" y="39.87" width="1.63" height="1.63" fill="#F5F5F0" opacity="0.629" rx="0.4"></rect><rect x="174.94" y="40.04" width="2.12" height="2.12" fill="#F5F5F0" opacity="0.567" rx="0.4"></rect><rect x="157.29" y="155.96" width="4.11" height="4.11" fill="#F5F5F0" opacity="0.429" rx="0.4"></rect><rect x="71.63" y="88.33" width="3.56" height="3.56" fill="#F5F5F0" opacity="0.606" rx="0.4"></rect><rect x="151.22" y="141.79" width="3.62" height="3.62" fill="#F5F5F0" opacity="0.802" rx="0.4"></rect><rect x="103.67" y="135.57" width="3.79" height="3.79" fill="#F5F5F0" opacity="0.832" rx="0.4"></rect><rect x="37.94" y="144.07" width="2.58" height="2.58" fill="#F5F5F0" opacity="0.365" rx="0.4"></rect><rect x="157.81" y="89.46" width="3.17" height="3.17" fill="#F5F5F0" opacity="0.594" rx="0.4"></rect><rect x="116.07" y="73.96" width="1.69" height="1.69" fill="#F5F5F0" opacity="0.770" rx="0.4"></rect><rect x="86.81" y="104.00" width="1.53" height="1.53" fill="#F5F5F0" opacity="0.558" rx="0.4"></rect><rect x="138.73" y="160.64" width="2.95" height="2.95" fill="#F5F5F0" opacity="0.421" rx="0.4"></rect><rect x="215.16" y="122.82" width="1.57" height="1.57" fill="#F5F5F0" opacity="0.483" rx="0.4"></rect><rect x="90.04" y="83.78" width="2.51" height="2.51" fill="#F5F5F0" opacity="0.617" rx="0.4"></rect><rect x="129.27" y="118.60" width="2.75" height="2.75" fill="#F5F5F0" opacity="0.936" rx="0.4"></rect><rect x="152.49" y="56.76" width="1.59" height="1.59" fill="#F5F5F0" opacity="0.745" rx="0.4"></rect><rect x="67.54" y="108.11" width="3.80" height="3.80" fill="#F5F5F0" opacity="0.827" rx="0.4"></rect><rect x="179.55" y="30.08" width="3.46" height="3.46" fill="#F5F5F0" opacity="0.451" rx="0.4"></rect><rect x="142.54" y="13.67" width="3.30" height="3.30" fill="#F5F5F0" opacity="0.469" rx="0.4"></rect><rect x="188.10" y="87.30" width="3.17" height="3.17" fill="#B8FF00" opacity="0.287" rx="0.4"></rect><rect x="99.51" y="67.45" width="2.74" height="2.74" fill="#F5F5F0" opacity="0.940" rx="0.4"></rect><rect x="66.38" y="97.11" width="1.61" height="1.61" fill="#F5F5F0" opacity="0.819" rx="0.4"></rect><rect x="77.31" y="124.27" width="1.60" height="1.60" fill="#F5F5F0" opacity="0.606" rx="0.4"></rect><rect x="102.78" y="93.16" width="3.49" height="3.49" fill="#F5F5F0" opacity="0.810" rx="0.4"></rect><rect x="102.23" y="74.96" width="2.39" height="2.39" fill="#F5F5F0" opacity="0.890" rx="0.4"></rect><rect x="160.69" y="92.61" width="1.50" height="1.50" fill="#F5F5F0" opacity="0.844" rx="0.4"></rect><rect x="114.83" y="152.16" width="3.57" height="3.57" fill="#F5F5F0" opacity="0.548" rx="0.4"></rect><rect x="112.12" y="92.58" width="4.15" height="4.15" fill="#F5F5F0" opacity="0.904" rx="0.4"></rect><rect x="27.74" y="134.94" width="3.99" height="3.99" fill="#F5F5F0" opacity="0.315" rx="0.4"></rect><rect x="146.24" y="83.79" width="1.33" height="1.33" fill="#F5F5F0" opacity="0.951" rx="0.4"></rect><rect x="180.77" y="113.20" width="3.98" height="3.98" fill="#F5F5F0" opacity="0.429" rx="0.4"></rect><rect x="135.87" y="4.16" width="3.60" height="3.60" fill="#B8FF00" opacity="0.467" rx="0.4"></rect><rect x="171.33" y="37.25" width="1.36" height="1.36" fill="#F5F5F0" opacity="0.604" rx="0.4"></rect><rect x="137.92" y="112.40" width="3.85" height="3.85" fill="#F5F5F0" opacity="0.587" rx="0.4"></rect><rect x="86.77" y="122.85" width="3.90" height="3.90" fill="#F5F5F0" opacity="0.936" rx="0.4"></rect><rect x="157.41" y="58.25" width="3.88" height="3.88" fill="#F5F5F0" opacity="0.780" rx="0.4"></rect><rect x="141.96" y="101.17" width="3.50" height="3.50" fill="#F5F5F0" opacity="0.963" rx="0.4"></rect><rect x="178.20" y="145.57" width="2.22" height="2.22" fill="#F5F5F0" opacity="0.487" rx="0.4"></rect><rect x="130.88" y="88.08" width="2.58" height="2.58" fill="#F5F5F0" opacity="0.842" rx="0.4"></rect><text x="14" y="115.24" font-family="&#39;Space Grotesk&#39;, sans-serif" font-size="140" font-weight="700" letter-spacing="-0.03em" fill="#F5F5F0">pr</text><text x="157" y="115.24" font-family="&#39;Space Grotesk&#39;, sans-serif" font-size="140" font-weight="700" letter-spacing="-0.03em" fill="#F5F5F0">view</text>
</svg>