<?xml version="1.0"?>
<svg xmlns="http://www.w3.org/2000/svg" viewBox="0 0 481 139" width="481" height="139">

<rect x="123.52" y="31.54" width="1.33" height="1.33" fill="#F5F5F0" opacity="0.564" rx="0.4"></rect><rect x="204.88" y="104.27" width="2.35" height="2.35" fill="#B8FF00" opacity="0.241" rx="0.4"></rect><rect x="130.39" y="36.74" width="3.91" height="3.91" fill="#F5F5F0" opacity="0.638" rx="0.4"></rect><rect x="78.29" y="25.75" width="3.20" height="3.20" fill="#F5F5F0" opacity="0.746" rx="0.4"></rect><rect x="63.39" y="20.20" width="2.75" height="2.75" fill="#F5F5F0" opacity="0.620" rx="0.4"></rect><rect x="172.43" y="72.94" width="2.54" height="2.54" fill="#B8FF00" opacity="0.456" rx="0.4"></rect><rect x="139.24" y="44.27" width="3.12" height="3.12" fill="#F5F5F0" opacity="0.853" rx="0.4"></rect><rect x="144.53" y="34.14" width="3.06" height="3.06" fill="#F5F5F0" opacity="0.714" rx="0.4"></rect><rect x="138.81" y="82.55" width="3.02" height="3.02" fill="#B8FF00" opacity="0.483" rx="0.4"></rect><rect x="140.55" y="8.19" width="2.82" height="2.82" fill="#F5F5F0" opacity="0.719" rx="0.4"></rect><rect x="137.99" y="107.89" width="1.57" height="1.57" fill="#F5F5F0" opacity="0.892" rx="0.4"></rect><rect x="159.95" y="75.12" width="3.65" height="3.65" fill="#F5F5F0" opacity="0.577" rx="0.4"></rect><rect x="85.24" y="9.83" width="2.71" height="2.71" fill="#F5F5F0" opacity="0.621" rx="0.4"></rect><rect x="96.04" y="2.86" width="3.72" height="3.72" fill="#F5F5F0" opacity="0.583" rx="0.4"></rect><rect x="53.41" y="63.92" width="3.33" height="3.33" fill="#B8FF00" opacity="0.381" rx="0.4"></rect><rect x="79.15" y="47.65" width="1.42" height="1.42" fill="#F5F5F0" opacity="0.969" rx="0.4"></rect><rect x="126.26" y="126.39" width="3.56" height="3.56" fill="#F5F5F0" opacity="0.447" rx="0.4"></rect><rect x="136.20" y="71.74" width="2.68" height="2.68" fill="#F5F5F0" opacity="0.562" rx="0.4"></rect><rect x="76.40" y="78.18" width="3.79" height="3.79" fill="#F5F5F0" opacity="0.569" rx="0.4"></rect><rect x="168.44" y="64.80" width="3.69" height="3.69" fill="#F5F5F0" opacity="0.520" rx="0.4"></rect><rect x="196.00" y="6.69" width="1.86" height="1.86" fill="#F5F5F0" opacity="0.527" rx="0.4"></rect><rect x="137.71" y="53.88" width="1.39" height="1.39" fill="#F5F5F0" opacity="0.756" rx="0.4"></rect><rect x="177.49" y="48.28" width="3.35" height="3.35" fill="#F5F5F0" opacity="0.567" rx="0.4"></rect><rect x="114.30" y="88.43" width="4.20" height="4.20" fill="#F5F5F0" opacity="0.821" rx="0.4"></rect><rect x="195.87" y="126.30" width="3.25" height="3.25" fill="#F5F5F0" opacity="0.459" rx="0.4"></rect><rect x="83.39" y="84.72" width="2.91" height="2.91" fill="#F5F5F0" opacity="0.821" rx="0.4"></rect><rect x="135.38" y="63.31" width="1.45" height="1.45" fill="#F5F5F0" opacity="0.582" rx="0.4"></rect><rect x="134.32" y="47.84" width="1.34" height="1.34" fill="#F5F5F0" opacity="0.892" rx="0.4"></rect><rect x="102.20" y="71.27" width="3.23" height="3.23" fill="#F5F5F0" opacity="0.906" rx="0.4"></rect><rect x="45.21" y="42.44" width="3.23" height="3.23" fill="#F5F5F0" opacity="0.481" rx="0.4"></rect><rect x="152.96" y="60.50" width="1.75" height="1.75" fill="#F5F5F0" opacity="0.620" rx="0.4"></rect><rect x="44.56" y="122.00" width="1.77" height="1.77" fill="#F5F5F0" opacity="0.410" rx="0.4"></rect><rect x="180.10" y="13.75" width="2.65" height="2.65" fill="#F5F5F0" opacity="0.651" rx="0.4"></rect><rect x="138.54" y="90.53" width="1.74" height="1.74" fill="#F5F5F0" opacity="0.971" rx="0.4"></rect><rect x="89.96" y="44.62" width="1.66" height="1.66" fill="#F5F5F0" opacity="0.575" rx="0.4"></rect><rect x="147.21" y="88.20" width="2.31" height="2.31" fill="#F5F5F0" opacity="0.935" rx="0.4"></rect><rect x="186.95" y="69.35" width="3.07" height="3.07" fill="#F5F5F0" opacity="0.631" rx="0.4"></rect><rect x="110.95" y="15.96" width="2.59" height="2.59" fill="#F5F5F0" opacity="0.674" rx="0.4"></rect><rect x="74.05" y="71.44" width="2.91" height="2.91" fill="#F5F5F0" opacity="0.829" rx="0.4"></rect><rect x="99.18" y="59.29" width="2.79" height="2.79" fill="#F5F5F0" opacity="0.768" rx="0.4"></rect><rect x="104.42" y="68.70" width="2.00" height="2.00" fill="#F5F5F0" opacity="0.935" rx="0.4"></rect><rect x="191.09" y="55.60" width="1.96" height="1.96" fill="#F5F5F0" opacity="0.493" rx="0.4"></rect><rect x="76.81" y="108.58" width="3.78" height="3.78" fill="#F5F5F0" opacity="0.573" rx="0.4"></rect><rect x="95.32" y="52.45" width="2.52" height="2.52" fill="#F5F5F0" opacity="0.706" rx="0.4"></rect><rect x="95.16" y="36.82" width="2.88" height="2.88" fill="#F5F5F0" opacity="0.714" rx="0.4"></rect><rect x="60.23" y="89.21" width="2.62" height="2.62" fill="#F5F5F0" opacity="0.719" rx="0.4"></rect><rect x="40.62" y="36.18" width="1.95" height="1.95" fill="#F5F5F0" opacity="0.647" rx="0.4"></rect><rect x="133.54" y="10.20" width="4.04" height="4.04" fill="#F5F5F0" opacity="0.846" rx="0.4"></rect><rect x="175.86" y="45.49" width="2.09" height="2.09" fill="#F5F5F0" opacity="0.657" rx="0.4"></rect><rect x="92.53" y="51.07" width="1.88" height="1.88" fill="#F5F5F0" opacity="0.942" rx="0.4"></rect><rect x="97.64" y="77.31" width="3.44" height="3.44" fill="#F5F5F0" opacity="0.876" rx="0.4"></rect><rect x="187.44" y="45.74" width="3.87" height="3.87" fill="#F5F5F0" opacity="0.705" rx="0.4"></rect><rect x="100.69" y="12.15" width="3.88" height="3.88" fill="#B8FF00" opacity="0.570" rx="0.4"></rect><rect x="159.01" y="44.82" width="2.40" height="2.40" fill="#F5F5F0" opacity="0.839" rx="0.4"></rect><rect x="137.64" y="8.64" width="3.38" height="3.38" fill="#F5F5F0" opacity="0.739" rx="0.4"></rect><rect x="193.98" y="36.67" width="1.59" height="1.59" fill="#F5F5F0" opacity="0.473" rx="0.4"></rect><rect x="76.43" y="32.66" width="3.08" height="3.08" fill="#F5F5F0" opacity="0.584" rx="0.4"></rect><rect x="130.38" y="24.13" width="2.40" height="2.40" fill="#F5F5F0" opacity="0.797" rx="0.4"></rect><rect x="179.68" y="71.45" width="4.00" height="4.00" fill="#F5F5F0" opacity="0.653" rx="0.4"></rect><rect x="205.74" y="54.01" width="2.61" height="2.61" fill="#F5F5F0" opacity="0.419" rx="0.4"></rect><rect x="180.34" y="2.85" width="1.99" height="1.99" fill="#F5F5F0" opacity="0.382" rx="0.4"></rect><rect x="179.60" y="72.40" width="1.41" height="1.41" fill="#F5F5F0" opacity="0.732" rx="0.4"></rect><rect x="129.56" y="92.49" width="2.16" height="2.16" fill="#F5F5F0" opacity="0.771" rx="0.4"></rect><rect x="159.14" y="31.83" width="1.61" height="1.61" fill="#F5F5F0" opacity="0.768" rx="0.4"></rect><rect x="155.77" y="34.33" width="2.57" height="2.57" fill="#F5F5F0" opacity="0.839" rx="0.4"></rect><rect x="35.01" y="108.45" width="3.71" height="3.71" fill="#F5F5F0" opacity="0.371" rx="0.4"></rect><rect x="102.73" y="45.33" width="2.66" height="2.66" fill="#F5F5F0" opacity="0.986" rx="0.4"></rect><rect x="99.52" y="39.85" width="2.11" height="2.11" fill="#F5F5F0" opacity="0.586" rx="0.4"></rect><rect x="28.41" y="34.48" width="4.16" height="4.16" fill="#F5F5F0" opacity="0.436" rx="0.4"></rect><rect x="70.86" y="83.04" width="2.58" height="2.58" fill="#F5F5F0" opacity="0.570" rx="0.4"></rect><rect x="112.80" y="91.55" width="3.75" height="3.75" fill="#F5F5F0" opacity="0.750" rx="0.4"></rect><rect x="115.06" y="3.69" width="3.35" height="3.35" fill="#F5F5F0" opacity="0.516" rx="0.4"></rect><rect x="85.02" y="58.16" width="2.08" height="2.08" fill="#F5F5F0" opacity="0.777" rx="0.4"></rect><rect x="84.64" y="83.76" width="2.11" height="2.11" fill="#F5F5F0" opacity="0.934" rx="0.4"></rect><rect x="153.11" y="98.56" width="3.97" height="3.97" fill="#F5F5F0" opacity="0.783" rx="0.4"></rect><rect x="108.88" y="73.08" width="2.19" height="2.19" fill="#F5F5F0" opacity="0.591" rx="0.4"></rect><rect x="187.56" y="52.36" width="1.63" height="1.63" fill="#F5F5F0" opacity="0.654" rx="0.4"></rect><rect x="82.18" y="7.72" width="1.47" height="1.47" fill="#F5F5F0" opacity="0.620" rx="0.4"></rect><rect x="133.10" y="132.48" width="2.34" height="2.34" fill="#F5F5F0" opacity="0.503" rx="0.4"></rect><rect x="51.66" y="81.51" width="4.05" height="4.05" fill="#F5F5F0" opacity="0.413" rx="0.4"></rect><rect x="77.79" y="112.95" width="1.43" height="1.43" fill="#F5F5F0" opacity="0.438" rx="0.4"></rect><rect x="135.38" y="50.33" width="3.02" height="3.02" fill="#F5F5F0" opacity="0.835" rx="0.4"></rect><rect x="111.39" y="38.63" width="1.65" height="1.65" fill="#F5F5F0" opacity="0.902" rx="0.4"></rect><rect x="85.64" y="65.02" width="2.90" height="2.90" fill="#F5F5F0" opacity="0.617" rx="0.4"></rect><rect x="134.12" y="33.25" width="2.72" height="2.72" fill="#F5F5F0" opacity="0.817" rx="0.4"></rect><rect x="53.49" y="94.23" width="3.17" height="3.17" fill="#F5F5F0" opacity="0.446" rx="0.4"></rect><rect x="146.37" y="52.53" width="2.53" height="2.53" fill="#F5F5F0" opacity="0.718" rx="0.4"></rect><rect x="98.57" y="40.76" width="2.02" height="2.02" fill="#F5F5F0" opacity="0.822" rx="0.4"></rect><rect x="180.99" y="7.40" width="2.05" height="2.05" fill="#F5F5F0" opacity="0.597" rx="0.4"></rect><rect x="70.14" y="23.50" width="3.67" height="3.67" fill="#F5F5F0" opacity="0.826" rx="0.4"></rect><rect x="147.32" y="52.38" width="1.35" height="1.35" fill="#F5F5F0" opacity="0.712" rx="0.4"></rect><rect x="96.56" y="94.83" width="3.05" height="3.05" fill="#F5F5F0" opacity="0.560" rx="0.4"></rect><rect x="68.96" y="19.20" width="2.43" height="2.43" fill="#F5F5F0" opacity="0.525" rx="0.4"></rect><rect x="63.11" y="113.63" width="3.27" height="3.27" fill="#B8FF00" opacity="0.464" rx="0.4"></rect><rect x="155.47" y="61.12" width="3.31" height="3.31" fill="#F5F5F0" opacity="0.656" rx="0.4"></rect><rect x="152.67" y="88.18" width="2.42" height="2.42" fill="#F5F5F0" opacity="0.562" rx="0.4"></rect><rect x="34.65" y="66.91" width="1.62" height="1.62" fill="#F5F5F0" opacity="0.460" rx="0.4"></rect><rect x="81.19" y="125.35" width="3.30" height="3.30" fill="#F5F5F0" opacity="0.631" rx="0.4"></rect><rect x="83.35" y="30.50" width="1.71" height="1.71" fill="#F5F5F0" opacity="0.888" rx="0.4"></rect><rect x="134.89" y="128.19" width="2.54" height="2.54" fill="#F5F5F0" opacity="0.637" rx="0.4"></rect><rect x="71.95" y="65.88" width="4.06" height="4.06" fill="#F5F5F0" opacity="0.808" rx="0.4"></rect><rect x="62.11" y="118.05" width="3.18" height="3.18" fill="#F5F5F0" opacity="0.565" rx="0.4"></rect><rect x="194.89" y="53.81" width="2.75" height="2.75" fill="#F5F5F0" opacity="0.568" rx="0.4"></rect><rect x="105.01" y="70.37" width="3.72" height="3.72" fill="#F5F5F0" opacity="0.706" rx="0.4"></rect><rect x="141.85" y="121.15" width="3.60" height="3.60" fill="#F5F5F0" opacity="0.725" rx="0.4"></rect><rect x="91.83" y="26.43" width="3.11" height="3.11" fill="#F5F5F0" opacity="0.902" rx="0.4"></rect><rect x="161.88" y="65.41" width="1.74" height="1.74" fill="#F5F5F0" opacity="0.711" rx="0.4"></rect><rect x="117.04" y="29.60" width="2.46" height="2.46" fill="#F5F5F0" opacity="0.868" rx="0.4"></rect><rect x="139.57" y="116.56" width="4.13" height="4.13" fill="#F5F5F0" opacity="0.577" rx="0.4"></rect><rect x="152.79" y="33.33" width="4.07" height="4.07" fill="#F5F5F0" opacity="0.835" rx="0.4"></rect><rect x="162.87" y="51.80" width="1.65" height="1.65" fill="#F5F5F0" opacity="0.579" rx="0.4"></rect><rect x="192.37" y="69.94" width="2.76" height="2.76" fill="#F5F5F0" opacity="0.640" rx="0.4"></rect><rect x="130.89" y="2.44" width="3.60" height="3.60" fill="#F5F5F0" opacity="0.631" rx="0.4"></rect><rect x="99.54" y="54.00" width="1.73" height="1.73" fill="#F5F5F0" opacity="0.918" rx="0.4"></rect><rect x="177.07" y="120.41" width="3.65" height="3.65" fill="#F5F5F0" opacity="0.561" rx="0.4"></rect><rect x="175.55" y="29.25" width="3.41" height="3.41" fill="#F5F5F0" opacity="0.808" rx="0.4"></rect><rect x="119.50" y="32.27" width="2.91" height="2.91" fill="#F5F5F0" opacity="0.666" rx="0.4"></rect><rect x="123.13" y="20.92" width="3.56" height="3.56" fill="#F5F5F0" opacity="0.672" rx="0.4"></rect><rect x="117.16" y="44.99" width="3.53" height="3.53" fill="#F5F5F0" opacity="0.797" rx="0.4"></rect><rect x="100.69" y="123.66" width="3.30" height="3.30" fill="#F5F5F0" opacity="0.665" rx="0.4"></rect><rect x="124.86" y="34.37" width="1.65" height="1.65" fill="#F5F5F0" opacity="0.727" rx="0.4"></rect><rect x="55.44" y="83.48" width="1.70" height="1.70" fill="#F5F5F0" opacity="0.543" rx="0.4"></rect><rect x="69.76" y="64.20" width="3.63" height="3.63" fill="#F5F5F0" opacity="0.867" rx="0.4"></rect><rect x="115.37" y="55.93" width="2.20" height="2.20" fill="#F5F5F0" opacity="0.862" rx="0.4"></rect><rect x="112.37" y="29.46" width="1.41" height="1.41" fill="#F5F5F0" opacity="0.718" rx="0.4"></rect><rect x="59.84" y="44.15" width="3.36" height="3.36" fill="#F5F5F0" opacity="0.693" rx="0.4"></rect><rect x="130.52" y="25.96" width="2.23" height="2.23" fill="#F5F5F0" opacity="0.788" rx="0.4"></rect><rect x="28.61" y="71.24" width="2.22" height="2.22" fill="#F5F5F0" opacity="0.385" rx="0.4"></rect><rect x="131.30" y="83.74" width="1.56" height="1.56" fill="#F5F5F0" opacity="0.912" rx="0.4"></rect><rect x="205.28" y="31.10" width="1.62" height="1.62" fill="#F5F5F0" opacity="0.571" rx="0.4"></rect><rect x="115.65" y="70.82" width="2.67" height="2.67" fill="#F5F5F0" opacity="0.556" rx="0.4"></rect><rect x="156.51" y="114.63" width="1.91" height="1.91" fill="#F5F5F0" opacity="0.643" rx="0.4"></rect><rect x="75.05" y="94.83" width="1.88" height="1.88" fill="#F5F5F0" opacity="0.561" rx="0.4"></rect><rect x="140.44" y="40.95" width="1.35" height="1.35" fill="#F5F5F0" opacity="0.793" rx="0.4"></rect><rect x="122.69" y="73.60" width="1.89" height="1.89" fill="#F5F5F0" opacity="0.669" rx="0.4"></rect><rect x="122.66" y="134.64" width="2.59" height="2.59" fill="#F5F5F0" opacity="0.658" rx="0.4"></rect><rect x="162.88" y="63.57" width="1.86" height="1.86" fill="#F5F5F0" opacity="0.797" rx="0.4"></rect><rect x="84.76" y="64.22" width="1.59" height="1.59" fill="#F5F5F0" opacity="0.908" rx="0.4"></rect><rect x="126.92" y="21.39" width="3.54" height="3.54" fill="#F5F5F0" opacity="0.979" rx="0.4"></rect><rect x="113.69" y="63.30" width="4.13" height="4.13" fill="#F5F5F0" opacity="0.988" rx="0.4"></rect><rect x="137.96" y="37.82" width="1.67" height="1.67" fill="#F5F5F0" opacity="0.831" rx="0.4"></rect><rect x="87.33" y="87.16" width="3.13" height="3.13" fill="#F5F5F0" opacity="0.944" rx="0.4"></rect><rect x="89.39" y="70.03" width="3.41" height="3.41" fill="#F5F5F0" opacity="0.878" rx="0.4"></rect><rect x="26.33" y="20.30" width="4.19" height="4.19" fill="#F5F5F0" opacity="0.357" rx="0.4"></rect><rect x="126.27" y="14.29" width="3.65" height="3.65" fill="#F5F5F0" opacity="0.547" rx="0.4"></rect><rect x="78.36" y="7.97" width="1.63" height="1.63" fill="#F5F5F0" opacity="0.629" rx="0.4"></rect><rect x="179.94" y="8.13" width="2.12" height="2.12" fill="#F5F5F0" opacity="0.567" rx="0.4"></rect><rect x="162.29" y="124.05" width="4.11" height="4.11" fill="#F5F5F0" opacity="0.429" rx="0.4"></rect><rect x="76.63" y="56.43" width="3.56" height="3.56" fill="#F5F5F0" opacity="0.606" rx="0.4"></rect><rect x="156.22" y="109.88" width="3.62" height="3.62" fill="#F5F5F0" opacity="0.802" rx="0.4"></rect><rect x="108.67" y="103.67" width="3.79" height="3.79" fill="#F5F5F0" opacity="0.832" rx="0.4"></rect><rect x="42.94" y="112.17" width="2.58" height="2.58" fill="#F5F5F0" opacity="0.365" rx="0.4"></rect><rect x="162.81" y="57.56" width="3.17" height="3.17" fill="#F5F5F0" opacity="0.594" rx="0.4"></rect><rect x="121.07" y="42.05" width="1.69" height="1.69" fill="#F5F5F0" opacity="0.770" rx="0.4"></rect><rect x="91.81" y="72.10" width="1.53" height="1.53" fill="#F5F5F0" opacity="0.558" rx="0.4"></rect><rect x="143.73" y="128.74" width="2.95" height="2.95" fill="#F5F5F0" opacity="0.421" rx="0.4"></rect><rect x="220.16" y="90.92" width="1.57" height="1.57" fill="#F5F5F0" opacity="0.483" rx="0.4"></rect><rect x="95.04" y="51.87" width="2.51" height="2.51" fill="#F5F5F0" opacity="0.617" rx="0.4"></rect><rect x="134.27" y="86.70" width="2.75" height="2.75" fill="#F5F5F0" opacity="0.936" rx="0.4"></rect><rect x="157.49" y="24.85" width="1.59" height="1.59" fill="#F5F5F0" opacity="0.745" rx="0.4"></rect><rect x="72.54" y="76.21" width="3.80" height="3.80" fill="#F5F5F0" opacity="0.827" rx="0.4"></rect><rect x="193.10" y="55.39" width="3.17" height="3.17" fill="#B8FF00" opacity="0.287" rx="0.4"></rect><rect x="104.51" y="35.55" width="2.74" height="2.74" fill="#F5F5F0" opacity="0.940" rx="0.4"></rect><rect x="71.38" y="65.20" width="1.61" height="1.61" fill="#F5F5F0" opacity="0.819" rx="0.4"></rect><rect x="82.31" y="92.36" width="1.60" height="1.60" fill="#F5F5F0" opacity="0.606" rx="0.4"></rect><rect x="107.78" y="61.26" width="3.49" height="3.49" fill="#F5F5F0" opacity="0.810" rx="0.4"></rect><rect x="107.23" y="43.05" width="2.39" height="2.39" fill="#F5F5F0" opacity="0.890" rx="0.4"></rect><rect x="165.69" y="60.71" width="1.50" height="1.50" fill="#F5F5F0" opacity="0.844" rx="0.4"></rect><rect x="119.83" y="120.26" width="3.57" height="3.57" fill="#F5F5F0" opacity="0.548" rx="0.4"></rect><rect x="117.12" y="60.68" width="4.15" height="4.15" fill="#F5F5F0" opacity="0.904" rx="0.4"></rect><rect x="32.74" y="103.04" width="3.99" height="3.99" fill="#F5F5F0" opacity="0.315" rx="0.4"></rect><rect x="151.24" y="51.89" width="1.33" height="1.33" fill="#F5F5F0" opacity="0.951" rx="0.4"></rect><rect x="185.77" y="81.30" width="3.98" height="3.98" fill="#F5F5F0" opacity="0.429" rx="0.4"></rect><rect x="176.33" y="5.34" width="1.36" height="1.36" fill="#F5F5F0" opacity="0.604" rx="0.4"></rect><rect x="142.92" y="80.49" width="3.85" height="3.85" fill="#F5F5F0" opacity="0.587" rx="0.4"></rect><rect x="91.77" y="90.94" width="3.90" height="3.90" fill="#F5F5F0" opacity="0.936" rx="0.4"></rect><rect x="162.41" y="26.35" width="3.88" height="3.88" fill="#F5F5F0" opacity="0.780" rx="0.4"></rect><rect x="146.96" y="69.27" width="3.50" height="3.50" fill="#F5F5F0" opacity="0.963" rx="0.4"></rect><rect x="183.20" y="113.67" width="2.22" height="2.22" fill="#F5F5F0" opacity="0.487" rx="0.4"></rect><rect x="135.88" y="56.18" width="2.58" height="2.58" fill="#F5F5F0" opacity="0.842" rx="0.4"></rect><text x="14" y="85.4" font-family="&#39;Space Grotesk&#39;, sans-serif" font-size="140" font-weight="700" letter-spacing="-0.03em" fill="#F5F5F0">pr</text><text x="162" y="85.4" font-family="&#39;Space Grotesk&#39;, sans-serif" font-size="140" font-weight="700" letter-spacing="-0.03em" fill="#F5F5F0">view</text>
</svg>